{
.appVersion = "113";
DisplayStrings = (
"©2020",
"X@MAS.CO",
"®\012",
"©",
"0",
"APPLE/trademark",
T,
"UNCLOUD/trademark \012\012ORDERS\012@UNCLOUD.COM\012\012SUNDAY/space \012DELIVERY\012\012/emdash/space 25-10-20.",
"®",
M,
"//",
"!",
"3",
"VYVER\012WYF\012EVJE\012EWJE\012AVJE\012EWJO\012",
"ZATERDAG\012ZATERDAG\012ZATERDAG"
);
copyright = "Copyright © 2020 by Albert Smit.";
customParameters = (
{
name = license;
value = "OFL-1.1";
}
);
date = "2020-10-23 12:17:17 +0000";
designer = "Albert Smit";
familyName = "Qesper Display";
featurePrefixes = (
{
automatic = 1;
code = "languagesystem DFLT dflt;\012";
name = Languagesystems;
}
);
features = (
{
automatic = 1;
code = "sub I J by I_J.liga;\012";
name = liga;
}
);
fontMaster = (
{
alignmentZones = (
"{570, 16}",
"{570, 15}",
"{435, 15}",
"{0, -15}",
"{-136, -15}"
);
ascender = 570;
capHeight = 570;
descender = -136;
id = "79BCC730-0F44-4A42-A012-F492207EDC30";
userData = {
GSOffsetHorizontal = 15;
GSOffsetVertical = 10;
};
weightValue = 0;
widthValue = 0;
xHeight = 435;
}
);
glyphs = (
{
glyphname = A;
lastChange = "2020-10-24 15:07:11 +0000";
layers = (
{
layerId = "79BCC730-0F44-4A42-A012-F492207EDC30";
paths = (
{
closed = 1;
nodes = (
"50 0 OFFCURVE",
"44 6 OFFCURVE",
"45 15 CURVE",
"84 422 LINE",
"84 430 OFFCURVE",
"90 435 OFFCURVE",
"96 435 CURVE",
"205 435 LINE",
"214 435 OFFCURVE",
"219 427 OFFCURVE",
"219 420 CURVE",
"180 12 LINE",
"179 5 OFFCURVE",
"174 0 OFFCURVE",
"167 0 CURVE",
"58 0 LINE"
);
},
{
closed = 1;
nodes = (
"876 217 LINE",
"133 217 LINE",
"146 353 LINE",
"876 353 LINE"
);
},
{
closed = 1;
nodes = (
"220 569 LINE",
"944 569 LINE",
"944 0 LINE",
"810 0 LINE",
"810 434 LINE",
"220 434 LINE"
);
}
);
width = 999;
}
);
unicode = 0041;
},
{
glyphname = B;
lastChange = "2020-10-24 12:22:39 +0000";
layers = (
{
layerId = "79BCC730-0F44-4A42-A012-F492207EDC30";
paths = (
{
closed = 1;
nodes = (
"816 0 LINE",
"115 0 LINE",
"131 136 LINE",
"816 136 LINE"
);
},
{
closed = 1;
nodes = (
"55 0 OFFCURVE",
"49 7 OFFCURVE",
"50 15 CURVE",
"89 423 LINE",
"89 430 OFFCURVE",
"95 435 OFFCURVE",
"102 435 CURVE",
"211 435 LINE",
"219 435 OFFCURVE",
"225 429 OFFCURVE",
"225 421 CURVE",
"186 12 LINE",
"185 5 OFFCURVE",
"179 0 OFFCURVE",
"172 0 CURVE",
"63 0 LINE"
);
},
{
closed = 1;
nodes = (
"951 136 LINE",
"816 136 LINE",
"816 241 LINE",
"839 218 LINE",
"816 218 LINE",
"138 218 LINE",
"153 353 LINE",
"951 353 LINE"
);
},
{
closed = 1;
nodes = (
"818 353 LINE",
"683 353 LINE",
"683 458 LINE",
"706 435 LINE",
"683 435 LINE",
"226 434 LINE",
"226 569 LINE",
"818 570 LINE"
);
}
);
width = 1001;
}
);
unicode = 0042;
},
{
glyphname = C;
lastChange = "2020-10-23 14:53:56 +0000";
layers = (
{
layerId = "79BCC730-0F44-4A42-A012-F492207EDC30";
paths = (
{
closed = 1;
nodes = (
"804 0 LINE",
"183 0 LINE",
"183 136 LINE",
"804 136 LINE"
);
},
{
closed = 1;
nodes = (
"56 137 OFFCURVE",
"50 143 OFFCURVE",
"50 151 CURVE",
"76 424 LINE",
"76 431 OFFCURVE",
"82 435 OFFCURVE",
"89 435 CURVE",
"199 435 LINE",
"206 435 OFFCURVE",
"213 428 OFFCURVE",
"212 421 CURVE",
"186 149 LINE",
"186 142 OFFCURVE",
"180 137 OFFCURVE",
"173 137 CURVE",
"64 137 LINE"
);
},
{
closed = 1;
nodes = (
"937 355 LINE",
"803 355 LINE",
"803 455 LINE",
"823 434 LINE",
"803 434 LINE",
"214 434 LINE",
"214 570 LINE",
"937 570 LINE"
);
}
);
width = 987;
}
);
unicode = 0043;
},
{
glyphname = D;
lastChange = "2020-10-24 12:23:37 +0000";
layers = (
{
layerId = "79BCC730-0F44-4A42-A012-F492207EDC30";
paths = (
{
closed = 1;
nodes = (
"804 0 LINE",
"102 0 LINE",
"116 136 LINE",
"804 136 LINE"
);
},
{
closed = 1;
nodes = (
"938 135 LINE",
"804 135 LINE",
"804 459 LINE",
"831 434 LINE",
"804 434 LINE",
"213 434 LINE",
"213 570 LINE",
"938 570 LINE"
);
},
{
closed = 1;
nodes = (
"42 0 OFFCURVE",
"36 7 OFFCURVE",
"37 15 CURVE",
"76 423 LINE",
"76 430 OFFCURVE",
"82 435 OFFCURVE",
"89 435 CURVE",
"198 435 LINE",
"206 435 OFFCURVE",
"212 429 OFFCURVE",
"212 421 CURVE",
"173 12 LINE",
"172 5 OFFCURVE",
"166 0 OFFCURVE",
"159 0 CURVE",
"50 0 LINE"
);
}
);
width = 988;
}
);
unicode = 0044;
},
{
glyphname = E;
lastChange = "2020-10-24 22:16:36 +0000";
layers = (
{
layerId = "79BCC730-0F44-4A42-A012-F492207EDC30";
paths = (
{
closed = 1;
nodes = (
"951 434 LINE",
"226 434 LINE",
"226 570 LINE",
"951 570 LINE"
);
},
{
closed = 1;
nodes = (
"816 0 LINE",
"115 0 LINE",
"131 136 LINE",
"816 136 LINE"
);
},
{
closed = 1;
nodes = (
"55 0 OFFCURVE",
"49 7 OFFCURVE",
"50 15 CURVE",
"89 423 LINE",
"89 430 OFFCURVE",
"95 435 OFFCURVE",
"102 435 CURVE",
"211 435 LINE",
"219 435 OFFCURVE",
"225 429 OFFCURVE",
"225 421 CURVE",
"186 12 LINE",
"185 5 OFFCURVE",
"179 0 OFFCURVE",
"172 0 CURVE",
"63 0 LINE"
);
},
{
closed = 1;
nodes = (
"951 218 LINE",
"136 218 LINE",
"152 353 LINE",
"951 353 LINE"
);
}
);
width = 1001;
}
);
unicode = 0045;
},
{
glyphname = F;
lastChange = "2020-10-24 11:20:57 +0000";
layers = (
{
layerId = "79BCC730-0F44-4A42-A012-F492207EDC30";
paths = (
{
closed = 1;
nodes = (
"951 434 LINE",
"226 434 LINE",
"226 570 LINE",
"951 570 LINE"
);
},
{
closed = 1;
nodes = (
"55 0 OFFCURVE",
"49 7 OFFCURVE",
"50 15 CURVE",
"89 423 LINE",
"89 430 OFFCURVE",
"95 435 OFFCURVE",
"102 435 CURVE",
"211 435 LINE",
"219 435 OFFCURVE",
"225 429 OFFCURVE",
"225 421 CURVE",
"186 12 LINE",
"185 5 OFFCURVE",
"179 0 OFFCURVE",
"172 0 CURVE",
"63 0 LINE"
);
},
{
closed = 1;
nodes = (
"951 218 LINE",
"136 218 LINE",
"152 353 LINE",
"951 353 LINE"
);
}
);
width = 1001;
}
);
unicode = 0046;
},
{
glyphname = G;
lastChange = "2020-10-24 11:26:50 +0000";
layers = (
{
layerId = "79BCC730-0F44-4A42-A012-F492207EDC30";
paths = (
{
closed = 1;
nodes = (
"951 434 LINE",
"226 434 LINE",
"226 570 LINE",
"951 570 LINE"
);
},
{
closed = 1;
nodes = (
"816 0 LINE",
"116 0 LINE",
"134 136 LINE",
"816 136 LINE"
);
},
{
closed = 1;
nodes = (
"55 0 OFFCURVE",
"49 7 OFFCURVE",
"50 15 CURVE",
"89 423 LINE",
"89 430 OFFCURVE",
"95 435 OFFCURVE",
"102 435 CURVE",
"211 435 LINE",
"219 435 OFFCURVE",
"225 429 OFFCURVE",
"225 421 CURVE",
"186 12 LINE",
"185 5 OFFCURVE",
"179 0 OFFCURVE",
"172 0 CURVE",
"63 0 LINE"
);
},
{
closed = 1;
nodes = (
"951 136 LINE",
"816 136 LINE",
"816 241 LINE",
"839 218 LINE",
"816 218 LINE",
"441 218 LINE",
"441 353 LINE",
"951 353 LINE"
);
}
);
width = 1001;
}
);
unicode = 0047;
},
{
glyphname = H;
lastChange = "2020-10-24 12:21:49 +0000";
layers = (
{
layerId = "79BCC730-0F44-4A42-A012-F492207EDC30";
paths = (
{
closed = 1;
nodes = (
"55 0 OFFCURVE",
"49 7 OFFCURVE",
"50 15 CURVE",
"88 423 LINE",
"89 429 OFFCURVE",
"95 435 OFFCURVE",
"102 435 CURVE",
"211 435 LINE",
"219 435 OFFCURVE",
"225 428 OFFCURVE",
"224 420 CURVE",
"185 12 LINE",
"185 5 OFFCURVE",
"179 0 OFFCURVE",
"172 0 CURVE",
"63 0 LINE"
);
},
{
closed = 1;
nodes = (
"948 134 LINE",
"811 134 LINE",
"811 245 LINE",
"834 219 LINE",
"811 219 LINE",
"137 219 LINE",
"147 354 LINE",
"834 354 LINE",
"814 332 LINE",
"814 355 LINE",
"814 570 LINE",
"948 570 LINE"
);
}
);
width = 998;
}
);
unicode = 0048;
},
{
glyphname = I;
lastChange = "2020-10-25 16:44:18 +0000";
layers = (
{
layerId = "79BCC730-0F44-4A42-A012-F492207EDC30";
paths = (
{
closed = 1;
nodes = (
"55 0 OFFCURVE",
"49 7 OFFCURVE",
"50 15 CURVE",
"88 423 LINE",
"89 429 OFFCURVE",
"95 435 OFFCURVE",
"102 435 CURVE",
"211 435 LINE",
"219 435 OFFCURVE",
"225 428 OFFCURVE",
"224 420 CURVE",
"185 12 LINE",
"185 5 OFFCURVE",
"179 0 OFFCURVE",
"172 0 CURVE",
"63 0 LINE"
);
}
);
width = 274;
}
);
unicode = 0049;
},
{
glyphname = J;
lastChange = "2020-10-25 18:35:24 +0000";
layers = (
{
layerId = "79BCC730-0F44-4A42-A012-F492207EDC30";
paths = (
{
closed = 1;
nodes = (
"816 0 LINE",
"116 0 LINE",
"134 136 LINE",
"816 136 LINE"
);
},
{
closed = 1;
nodes = (
"951 136 LINE",
"816 136 LINE",
"816 570 LINE",
"951 570 LINE"
);
},
{
closed = 1;
nodes = (
"55 0 OFFCURVE",
"49 7 OFFCURVE",
"50 15 CURVE",
"60 124 LINE",
"61 130 OFFCURVE",
"67 136 OFFCURVE",
"74 136 CURVE",
"334 136 LINE",
"342 136 OFFCURVE",
"348 129 OFFCURVE",
"347 121 CURVE",
"336 12 LINE",
"336 5 OFFCURVE",
"330 0 OFFCURVE",
"323 0 CURVE",
"63 0 LINE"
);
}
);
width = 1001;
}
);
unicode = 004A;
},
{
glyphname = K;
lastChange = "2020-10-23 17:58:18 +0000";
layers = (
{
layerId = "79BCC730-0F44-4A42-A012-F492207EDC30";
paths = (
{
closed = 1;
nodes = (
"815 219 LINE",
"137 219 LINE",
"147 354 LINE",
"815 354 LINE"
);
},
{
closed = 1;
nodes = (
"814 0 LINE",
"649 0 LINE",
"404 245 LINE",
"499 341 LINE",
"705 135 LINE",
"729 111 LINE",
"669 135 LINE",
"814 135 LINE"
);
},
{
closed = 1;
nodes = (
"55 0 OFFCURVE",
"49 7 OFFCURVE",
"50 15 CURVE",
"88 423 LINE",
"89 429 OFFCURVE",
"95 435 OFFCURVE",
"102 435 CURVE",
"211 435 LINE",
"219 435 OFFCURVE",
"225 428 OFFCURVE",
"224 420 CURVE",
"185 12 LINE",
"185 5 OFFCURVE",
"179 0 OFFCURVE",
"172 0 CURVE",
"63 0 LINE"
);
},
{
closed = 1;
nodes = (
"948 354 LINE",
"815 354 LINE",
"815 569 LINE",
"948 569 LINE"
);
}
);
width = 998;
}
);
unicode = 004B;
},
{
glyphname = L;
lastChange = "2020-10-24 12:21:31 +0000";
layers = (
{
layerId = "79BCC730-0F44-4A42-A012-F492207EDC30";
paths = (
{
closed = 1;
nodes = (
"815 0 LINE",
"113 0 LINE",
"130 136 LINE",
"815 136 LINE"
);
},
{
closed = 1;
nodes = (
"55 0 OFFCURVE",
"49 7 OFFCURVE",
"50 15 CURVE",
"88 423 LINE",
"89 429 OFFCURVE",
"95 435 OFFCURVE",
"102 435 CURVE",
"211 435 LINE",
"219 435 OFFCURVE",
"225 428 OFFCURVE",
"224 420 CURVE",
"185 12 LINE",
"185 5 OFFCURVE",
"179 0 OFFCURVE",
"172 0 CURVE",
"63 0 LINE"
);
},
{
closed = 1;
nodes = (
"949 136 LINE",
"815 136 LINE",
"815 271 LINE",
"949 271 LINE"
);
}
);
width = 999;
}
);
unicode = 004C;
},
{
glyphname = M;
lastChange = "2020-10-24 12:20:34 +0000";
layers = (
{
layerId = "79BCC730-0F44-4A42-A012-F492207EDC30";
paths = (
{
closed = 1;
nodes = (
"829 0 LINE",
"722 0 LINE",
"287 435 LINE",
"274 448 LINE",
"306 435 LINE",
"227 435 LINE",
"227 570 LINE",
"346 570 LINE",
"780 136 LINE",
"794 122 LINE",
"761 136 LINE",
"830 136 LINE"
);
},
{
closed = 1;
nodes = (
"55 0 OFFCURVE",
"49 7 OFFCURVE",
"50 15 CURVE",
"88 423 LINE",
"89 429 OFFCURVE",
"95 435 OFFCURVE",
"102 435 CURVE",
"211 435 LINE",
"219 435 OFFCURVE",
"225 428 OFFCURVE",
"224 420 CURVE",
"185 12 LINE",
"185 5 OFFCURVE",
"179 0 OFFCURVE",
"172 0 CURVE",
"63 0 LINE"
);
},
{
closed = 1;
nodes = (
"1432 0 LINE",
"1325 0 LINE",
"964 361 LINE",
"940 385 LINE",
"964 394 LINE",
"964 136 LINE",
"830 136 LINE",
"830 570 LINE",
"949 570 LINE",
"1383 136 LINE",
"1397 122 LINE",
"1364 136 LINE",
"1433 136 LINE"
);
}
);
width = 1483;
}
);
unicode = 004D;
},
{
glyphname = N;
lastChange = "2020-10-24 12:22:01 +0000";
layers = (
{
layerId = "79BCC730-0F44-4A42-A012-F492207EDC30";
paths = (
{
closed = 1;
nodes = (
"964 570 LINE",
"964 136 LINE",
"830 136 LINE",
"830 570 LINE"
);
},
{
closed = 1;
nodes = (
"829 0 LINE",
"722 0 LINE",
"287 435 LINE",
"274 448 LINE",
"306 435 LINE",
"227 435 LINE",
"227 570 LINE",
"346 570 LINE",
"780 136 LINE",
"794 122 LINE",
"761 136 LINE",
"830 136 LINE"
);
},
{
closed = 1;
nodes = (
"55 0 OFFCURVE",
"49 7 OFFCURVE",
"50 15 CURVE",
"88 423 LINE",
"89 429 OFFCURVE",
"95 435 OFFCURVE",
"102 435 CURVE",
"211 435 LINE",
"219 435 OFFCURVE",
"225 428 OFFCURVE",
"224 420 CURVE",
"185 12 LINE",
"185 5 OFFCURVE",
"179 0 OFFCURVE",
"172 0 CURVE",
"63 0 LINE"
);
}
);
width = 1014;
}
);
unicode = 004E;
},
{
glyphname = O;
lastChange = "2020-10-24 12:21:53 +0000";
layers = (
{
layerId = "79BCC730-0F44-4A42-A012-F492207EDC30";
paths = (
{
closed = 1;
nodes = (
"804 434 LINE",
"213 434 LINE",
"213 570 LINE",
"804 570 LINE"
);
},
{
closed = 1;
nodes = (
"804 0 LINE",
"183 0 LINE",
"183 136 LINE",
"804 136 LINE"
);
},
{
closed = 1;
nodes = (
"56 137 OFFCURVE",
"50 143 OFFCURVE",
"50 151 CURVE",
"76 424 LINE",
"76 431 OFFCURVE",
"82 435 OFFCURVE",
"89 435 CURVE",
"199 435 LINE",
"206 435 OFFCURVE",
"213 428 OFFCURVE",
"212 421 CURVE",
"186 149 LINE",
"186 142 OFFCURVE",
"180 137 OFFCURVE",
"173 137 CURVE",
"64 137 LINE"
);
},
{
closed = 1;
nodes = (
"938 434 LINE",
"938 135 LINE",
"804 135 LINE",
"804 434 LINE"
);
}
);
width = 988;
}
);
unicode = 004F;
},
{
glyphname = P;
lastChange = "2020-10-24 11:20:48 +0000";
layers = (
{
layerId = "79BCC730-0F44-4A42-A012-F492207EDC30";
paths = (
{
closed = 1;
nodes = (
"55 0 OFFCURVE",
"49 7 OFFCURVE",
"50 15 CURVE",
"89 423 LINE",
"89 430 OFFCURVE",
"95 435 OFFCURVE",
"102 435 CURVE",
"211 435 LINE",
"219 435 OFFCURVE",
"225 429 OFFCURVE",
"225 421 CURVE",
"186 12 LINE",
"185 5 OFFCURVE",
"179 0 OFFCURVE",
"172 0 CURVE",
"63 0 LINE"
);
},
{
closed = 1;
nodes = (
"948 219 LINE",
"137 219 LINE",
"147 354 LINE",
"834 354 LINE",
"814 332 LINE",
"814 355 LINE",
"814 455 LINE",
"834 434 LINE",
"814 434 LINE",
"225 434 LINE",
"225 570 LINE",
"948 570 LINE"
);
}
);
width = 998;
}
);
unicode = 0050;
},
{
glyphname = Q;
lastChange = "2020-10-24 12:21:27 +0000";
layers = (
{
layerId = "79BCC730-0F44-4A42-A012-F492207EDC30";
paths = (
{
closed = 1;
nodes = (
"804 434 LINE",
"213 434 LINE",
"213 570 LINE",
"804 570 LINE"
);
},
{
closed = 1;
nodes = (
"512 0 LINE",
"183 0 LINE",
"183 136 LINE",
"512 136 LINE"
);
},
{
closed = 1;
nodes = (
"56 137 OFFCURVE",
"50 143 OFFCURVE",
"50 151 CURVE",
"76 424 LINE",
"76 431 OFFCURVE",
"82 435 OFFCURVE",
"89 435 CURVE",
"199 435 LINE",
"206 435 OFFCURVE",
"213 428 OFFCURVE",
"212 421 CURVE",
"186 149 LINE",
"186 142 OFFCURVE",
"180 137 OFFCURVE",
"173 137 CURVE",
"64 137 LINE"
);
},
{
closed = 1;
nodes = (
"938 434 LINE",
"938 135 LINE",
"804 135 LINE",
"804 434 LINE"
);
},
{
closed = 1;
nodes = (
"804 0 LINE",
"649 0 LINE",
"404 245 LINE",
"499 341 LINE",
"705 135 LINE",
"729 111 LINE",
"669 135 LINE",
"804 135 LINE"
);
}
);
width = 988;
}
);
unicode = 0051;
},
{
glyphname = R;
lastChange = "2020-10-24 11:28:12 +0000";
layers = (
{
background = {
paths = (
{
closed = 1;
nodes = (
"948 219 LINE",
"137 219 LINE",
"147 354 LINE",
"834 354 LINE",
"814 332 LINE",
"814 355 LINE",
"814 455 LINE",
"834 434 LINE",
"814 434 LINE",
"225 434 LINE",
"225 570 LINE",
"948 570 LINE"
);
},
{
closed = 1;
nodes = (
"814 0 LINE",
"649 0 LINE",
"404 245 LINE",
"499 341 LINE",
"705 135 LINE",
"729 111 LINE",
"669 135 LINE",
"814 135 LINE"
);
},
{
closed = 1;
nodes = (
"55 0 OFFCURVE",
"49 7 OFFCURVE",
"50 15 CURVE",
"88 423 LINE",
"89 429 OFFCURVE",
"95 435 OFFCURVE",
"102 435 CURVE",
"211 435 LINE",
"219 435 OFFCURVE",
"225 428 OFFCURVE",
"224 420 CURVE",
"185 12 LINE",
"185 5 OFFCURVE",
"179 0 OFFCURVE",
"172 0 CURVE",
"63 0 LINE"
);
}
);
};
layerId = "79BCC730-0F44-4A42-A012-F492207EDC30";
paths = (
{
closed = 1;
nodes = (
"948 219 LINE",
"137 219 LINE",
"147 354 LINE",
"834 354 LINE",
"814 332 LINE",
"814 355 LINE",
"814 455 LINE",
"834 434 LINE",
"814 434 LINE",
"225 434 LINE",
"225 570 LINE",
"948 570 LINE"
);
},
{
closed = 1;
nodes = (
"814 0 LINE",
"649 0 LINE",
"404 245 LINE",
"499 341 LINE",
"705 135 LINE",
"729 111 LINE",
"669 135 LINE",
"814 135 LINE"
);
},
{
closed = 1;
nodes = (
"55 0 OFFCURVE",
"49 7 OFFCURVE",
"50 15 CURVE",
"88 423 LINE",
"89 429 OFFCURVE",
"95 435 OFFCURVE",
"102 435 CURVE",
"211 435 LINE",
"219 435 OFFCURVE",
"225 428 OFFCURVE",
"224 420 CURVE",
"185 12 LINE",
"185 5 OFFCURVE",
"179 0 OFFCURVE",
"172 0 CURVE",
"63 0 LINE"
);
}
);
width = 998;
}
);
unicode = 0052;
},
{
glyphname = S;
lastChange = "2020-10-24 12:21:14 +0000";
layers = (
{
layerId = "79BCC730-0F44-4A42-A012-F492207EDC30";
paths = (
{
closed = 1;
nodes = (
"56 217 OFFCURVE",
"50 223 OFFCURVE",
"50 231 CURVE",
"68 424 LINE",
"68 431 OFFCURVE",
"74 435 OFFCURVE",
"81 435 CURVE",
"191 435 LINE",
"198 435 OFFCURVE",
"205 428 OFFCURVE",
"204 421 CURVE",
"186 229 LINE",
"186 222 OFFCURVE",
"180 217 OFFCURVE",
"173 217 CURVE",
"64 217 LINE"
);
},
{
closed = 1;
nodes = (
"928 434 LINE",
"206 434 LINE",
"206 570 LINE",
"929 570 LINE"
);
},
{
closed = 1;
nodes = (
"929 136 LINE",
"795 136 LINE",
"795 238 LINE",
"815 217 LINE",
"795 217 LINE",
"118 217 LINE",
"131 353 LINE",
"929 353 LINE"
);
},
{
closed = 1;
nodes = (
"794 0 LINE",
"72 0 LINE",
"72 136 LINE",
"795 136 LINE"
);
}
);
width = 979;
}
);
unicode = 0053;
},
{
glyphname = T;
lastChange = "2020-10-24 11:28:49 +0000";
layers = (
{
layerId = "79BCC730-0F44-4A42-A012-F492207EDC30";
paths = (
{
closed = 1;
nodes = (
"788 434 LINE",
"197 434 LINE",
"197 570 LINE",
"788 570 LINE"
);
},
{
closed = 1;
nodes = (
"56 301 OFFCURVE",
"49 307 OFFCURVE",
"50 315 CURVE",
"60 424 LINE",
"61 430 OFFCURVE",
"66 435 OFFCURVE",
"73 435 CURVE",
"183 435 LINE",
"191 435 OFFCURVE",
"196 428 OFFCURVE",
"195 421 CURVE",
"186 312 LINE",
"185 305 OFFCURVE",
"179 301 OFFCURVE",
"172 301 CURVE",
"64 301 LINE"
);
},
{
closed = 1;
nodes = (
"921 300 LINE",
"788 300 LINE",
"788 434 LINE",
"921 434 LINE"
);
},
{
closed = 1;
nodes = (
"538 570 LINE",
"538 0 LINE",
"403 0 LINE",
"403 570 LINE"
);
}
);
width = 971;
}
);
unicode = 0054;
},
{
glyphname = U;
lastChange = "2020-10-24 12:21:10 +0000";
layers = (
{
layerId = "79BCC730-0F44-4A42-A012-F492207EDC30";
paths = (
{
closed = 1;
nodes = (
"804 0 LINE",
"183 0 LINE",
"183 136 LINE",
"804 136 LINE"
);
},
{
closed = 1;
nodes = (
"56 137 OFFCURVE",
"50 143 OFFCURVE",
"50 151 CURVE",
"76 424 LINE",
"76 431 OFFCURVE",
"82 435 OFFCURVE",
"89 435 CURVE",
"199 435 LINE",
"206 435 OFFCURVE",
"213 428 OFFCURVE",
"212 421 CURVE",
"186 149 LINE",
"186 142 OFFCURVE",
"180 137 OFFCURVE",
"173 137 CURVE",
"64 137 LINE"
);
},
{
closed = 1;
nodes = (
"938 570 LINE",
"938 135 LINE",
"804 135 LINE",
"804 570 LINE"
);
}
);
width = 988;
}
);
unicode = 0055;
},
{
glyphname = V;
lastChange = "2020-10-24 11:46:27 +0000";
layers = (
{
layerId = "79BCC730-0F44-4A42-A012-F492207EDC30";
paths = (
{
closed = 1;
nodes = (
"56 137 OFFCURVE",
"50 143 OFFCURVE",
"50 151 CURVE",
"76 424 LINE",
"76 431 OFFCURVE",
"82 435 OFFCURVE",
"89 435 CURVE",
"199 435 LINE",
"206 435 OFFCURVE",
"213 428 OFFCURVE",
"212 421 CURVE",
"186 149 LINE",
"186 142 OFFCURVE",
"180 137 OFFCURVE",
"173 137 CURVE",
"64 137 LINE"
);
},
{
closed = 1;
nodes = (
"254 136 LINE",
"221 122 LINE",
"235 136 LINE",
"669 570 LINE",
"788 570 LINE",
"788 435 LINE",
"709 435 LINE",
"741 448 LINE",
"728 435 LINE",
"293 0 LINE",
"186 0 LINE",
"185 136 LINE"
);
}
);
width = 838;
}
);
unicode = 0056;
},
{
color = 11;
glyphname = W;
lastChange = "2020-10-24 11:46:40 +0000";
layers = (
{
layerId = "79BCC730-0F44-4A42-A012-F492207EDC30";
paths = (
{
closed = 1;
nodes = (
"856 136 LINE",
"823 122 LINE",
"837 136 LINE",
"1271 570 LINE",
"1390 570 LINE",
"1390 435 LINE",
"1311 435 LINE",
"1343 448 LINE",
"1330 435 LINE",
"895 0 LINE",
"788 0 LINE",
"787 136 LINE"
);
},
{
closed = 1;
nodes = (
"253 136 LINE",
"220 122 LINE",
"234 136 LINE",
"668 570 LINE",
"787 570 LINE",
"787 136 LINE",
"653 136 LINE",
"653 394 LINE",
"677 385 LINE",
"653 361 LINE",
"292 0 LINE",
"185 0 LINE",
"184 136 LINE"
);
},
{
closed = 1;
nodes = (
"56 137 OFFCURVE",
"50 143 OFFCURVE",
"50 151 CURVE",
"76 424 LINE",
"76 431 OFFCURVE",
"82 435 OFFCURVE",
"89 435 CURVE",
"199 435 LINE",
"206 435 OFFCURVE",
"213 428 OFFCURVE",
"212 421 CURVE",
"186 149 LINE",
"186 142 OFFCURVE",
"180 137 OFFCURVE",
"173 137 CURVE",
"64 137 LINE"
);
}
);
width = 1440;
}
);
unicode = 0057;
},
{
glyphname = X;
lastChange = "2020-10-24 11:46:46 +0000";
layers = (
{
layerId = "79BCC730-0F44-4A42-A012-F492207EDC30";
paths = (
{
closed = 1;
nodes = (
"929 0 LINE",
"752 0 LINE",
"317 435 LINE",
"304 448 LINE",
"336 435 LINE",
"224 435 LINE",
"224 570 LINE",
"376 570 LINE",
"810 136 LINE",
"824 122 LINE",
"791 136 LINE",
"930 136 LINE"
);
},
{
closed = 1;
nodes = (
"55 0 OFFCURVE",
"49 7 OFFCURVE",
"50 15 CURVE",
"60 124 LINE",
"61 130 OFFCURVE",
"67 136 OFFCURVE",
"74 136 CURVE",
"334 136 LINE",
"342 136 OFFCURVE",
"348 129 OFFCURVE",
"347 121 CURVE",
"336 12 LINE",
"336 5 OFFCURVE",
"330 0 OFFCURVE",
"323 0 CURVE",
"63 0 LINE"
);
},
{
closed = 1;
nodes = (
"323 136 LINE",
"290 122 LINE",
"304 136 LINE",
"738 570 LINE",
"1064 570 LINE",
"1064 435 LINE",
"778 435 LINE",
"810 448 LINE",
"797 435 LINE",
"362 0 LINE",
"215 0 LINE",
"214 136 LINE"
);
},
{
closed = 1;
nodes = (
"1064 136 LINE",
"930 136 LINE",
"930 271 LINE",
"1064 271 LINE"
);
}
);
width = 1114;
}
);
unicode = 0058;
},
{
glyphname = Y;
lastChange = "2020-10-25 20:55:42 +0000";
layers = (
{
layerId = "79BCC730-0F44-4A42-A012-F492207EDC30";
paths = (
{
closed = 1;
nodes = (
"816 0 LINE",
"116 0 LINE",
"134 136 LINE",
"816 136 LINE"
);
},
{
closed = 1;
nodes = (
"951 136 LINE",
"816 136 LINE",
"816 241 LINE",
"839 218 LINE",
"816 218 LINE",
"184 218 LINE",
"184 353 LINE",
"184 416 LINE",
"317 416 LINE",
"317 333 LINE",
"301 353 LINE",
"839 353 LINE",
"818 333 LINE",
"818 570 LINE",
"951 570 LINE"
);
},
{
closed = 1;
nodes = (
"55 0 OFFCURVE",
"49 7 OFFCURVE",
"50 15 CURVE",
"60 124 LINE",
"61 130 OFFCURVE",
"67 136 OFFCURVE",
"74 136 CURVE",
"334 136 LINE",
"342 136 OFFCURVE",
"348 129 OFFCURVE",
"347 121 CURVE",
"336 12 LINE",
"336 5 OFFCURVE",
"330 0 OFFCURVE",
"323 0 CURVE",
"63 0 LINE"
);
}
);
width = 1001;
}
);
unicode = 0059;
},
{
glyphname = Z;
lastChange = "2020-10-25 12:04:35 +0000";
layers = (
{
layerId = "79BCC730-0F44-4A42-A012-F492207EDC30";
paths = (
{
closed = 1;
nodes = (
"279 136 LINE",
"246 122 LINE",
"260 136 LINE",
"694 570 LINE",
"813 570 LINE",
"813 435 LINE",
"734 435 LINE",
"766 448 LINE",
"753 435 LINE",
"318 0 LINE",
"211 0 LINE",
"210 136 LINE"
);
},
{
closed = 1;
nodes = (
"56 0 OFFCURVE",
"50 6 OFFCURVE",
"50 14 CURVE",
"60 125 LINE",
"60 132 OFFCURVE",
"66 136 OFFCURVE",
"73 136 CURVE",
"183 136 LINE",
"190 136 OFFCURVE",
"197 129 OFFCURVE",
"196 122 CURVE",
"186 12 LINE",
"186 5 OFFCURVE",
"180 0 OFFCURVE",
"173 0 CURVE",
"64 0 LINE"
);
},
{
closed = 1;
nodes = (
"948 434 LINE",
"226 434 LINE",
"226 570 LINE",
"949 570 LINE"
);
},
{
closed = 1;
nodes = (
"810 136 LINE",
"809 0 LINE",
"114 0 LINE",
"132 136 LINE"
);
},
{
closed = 1;
nodes = (
"226 299 LINE",
"92 299 LINE",
"92 434 LINE",
"226 434 LINE"
);
},
{
closed = 1;
nodes = (
"944 136 LINE",
"810 136 LINE",
"810 271 LINE",
"944 271 LINE"
);
}
);
width = 999;
}
);
unicode = 005A;
},
{
glyphname = I_J.liga;
lastChange = "2020-10-24 12:14:01 +0000";
layers = (
{
layerId = "79BCC730-0F44-4A42-A012-F492207EDC30";
paths = (
{
closed = 1;
nodes = (
"816 0 LINE",
"116 0 LINE",
"134 136 LINE",
"816 136 LINE"
);
},
{
closed = 1;
nodes = (
"951 136 LINE",
"816 136 LINE",
"816 570 LINE",
"951 570 LINE"
);
},
{
closed = 1;
nodes = (
"55 0 OFFCURVE",
"49 7 OFFCURVE",
"50 15 CURVE",
"60 124 LINE",
"61 130 OFFCURVE",
"67 136 OFFCURVE",
"74 136 CURVE",
"334 136 LINE",
"342 136 OFFCURVE",
"348 129 OFFCURVE",
"347 121 CURVE",
"336 12 LINE",
"336 5 OFFCURVE",
"330 0 OFFCURVE",
"323 0 CURVE",
"63 0 LINE"
);
},
{
closed = 1;
nodes = (
"272 272 LINE",
"137 272 LINE",
"137 434 LINE",
"272 434 LINE"
);
}
);
width = 1001;
}
);
},
{
glyphname = zero;
lastChange = "2020-10-24 22:19:03 +0000";
layers = (
{
layerId = "79BCC730-0F44-4A42-A012-F492207EDC30";
paths = (
{
closed = 1;
nodes = (
"804 434 LINE",
"213 434 LINE",
"213 570 LINE",
"804 570 LINE"
);
},
{
closed = 1;
nodes = (
"804 0 LINE",
"183 0 LINE",
"183 136 LINE",
"804 136 LINE"
);
},
{
closed = 1;
nodes = (
"56 137 OFFCURVE",
"50 143 OFFCURVE",
"50 151 CURVE",
"76 424 LINE",
"76 431 OFFCURVE",
"82 435 OFFCURVE",
"89 435 CURVE",
"199 435 LINE",
"206 435 OFFCURVE",
"213 428 OFFCURVE",
"212 421 CURVE",
"186 149 LINE",
"186 142 OFFCURVE",
"180 137 OFFCURVE",
"173 137 CURVE",
"64 137 LINE"
);
},
{
closed = 1;
nodes = (
"938 434 LINE",
"938 135 LINE",
"804 135 LINE",
"804 434 LINE"
);
},
{
closed = 1;
nodes = (
"804 0 LINE",
"649 0 LINE",
"213 434 LINE",
"213 570 LINE",
"270 570 LINE",
"705 135 LINE",
"729 111 LINE",
"669 135 LINE",
"804 135 LINE"
);
}
);
width = 988;
}
);
unicode = 0030;
},
{
glyphname = one;
lastChange = "2020-10-24 22:14:47 +0000";
layers = (
{
layerId = "79BCC730-0F44-4A42-A012-F492207EDC30";
paths = (
{
closed = 1;
nodes = (
"150 0 OFFCURVE",
"144 7 OFFCURVE",
"145 15 CURVE",
"184 423 LINE",
"184 430 OFFCURVE",
"190 435 OFFCURVE",
"197 435 CURVE",
"306 435 LINE",
"314 435 OFFCURVE",
"320 429 OFFCURVE",
"320 421 CURVE",
"281 12 LINE",
"280 5 OFFCURVE",
"274 0 OFFCURVE",
"267 0 CURVE",
"158 0 LINE"
);
},
{
closed = 1;
nodes = (
"184 434 LINE",
"50 434 LINE",
"50 569 LINE",
"184 569 LINE"
);
}
);
width = 370;
}
);
unicode = 0031;
},
{
glyphname = two;
lastChange = "2020-10-24 21:45:04 +0000";
layers = (
{
layerId = "79BCC730-0F44-4A42-A012-F492207EDC30";
paths = (
{
closed = 1;
nodes = (
"816 0 LINE",
"115 0 LINE",
"131 136 LINE",
"816 136 LINE"
);
},
{
closed = 1;
nodes = (
"55 0 OFFCURVE",
"49 7 OFFCURVE",
"50 15 CURVE",
"81 341 LINE",
"81 348 OFFCURVE",
"87 353 OFFCURVE",
"94 353 CURVE",
"203 353 LINE",
"211 353 OFFCURVE",
"217 347 OFFCURVE",
"217 339 CURVE",
"186 12 LINE",
"185 5 OFFCURVE",
"179 0 OFFCURVE",
"172 0 CURVE",
"63 0 LINE"
);
},
{
closed = 1;
nodes = (
"951 218 LINE",
"136 218 LINE",
"152 353 LINE",
"815 353 LINE",
"828 353 LINE",
"817 341 LINE",
"817 434 LINE",
"817 450 LINE",
"833 434 LINE",
"226 434 LINE",
"226 570 LINE",
"951 570 LINE"
);
}
);
width = 1001;
}
);
unicode = 0032;
},
{
glyphname = three;
lastChange = "2020-10-24 21:58:32 +0000";
layers = (
{
layerId = "79BCC730-0F44-4A42-A012-F492207EDC30";
paths = (
{
closed = 1;
nodes = (
"877 434 LINE",
"226 434 LINE",
"226 570 LINE",
"877 570 LINE"
);
},
{
closed = 1;
nodes = (
"877 218 LINE",
"877 353 LINE"
);
},
{
closed = 1;
nodes = (
"76 217 OFFCURVE",
"70 224 OFFCURVE",
"71 232 CURVE",
"81 341 LINE",
"82 347 OFFCURVE",
"88 353 OFFCURVE",
"95 353 CURVE",
"877 353 LINE",
"877 217 LINE",
"84 217 LINE"
);
},
{
closed = 1;
nodes = (
"55 0 OFFCURVE",
"49 7 OFFCURVE",
"50 15 CURVE",
"60 124 LINE",
"61 130 OFFCURVE",
"67 136 OFFCURVE",
"74 136 CURVE",
"878 136 LINE",
"878 0 LINE",
"63 0 LINE"
);
},
{
closed = 1;
nodes = (
"938 570 LINE",
"938 0 LINE",
"804 0 LINE",
"804 570 LINE"
);
}
);
width = 1001;
}
);
unicode = 0033;
},
{
glyphname = four;
lastChange = "2020-10-24 22:15:42 +0000";
layers = (
{
layerId = "79BCC730-0F44-4A42-A012-F492207EDC30";
paths = (
{
closed = 1;
nodes = (
"55 218 OFFCURVE",
"49 225 OFFCURVE",
"50 233 CURVE",
"69 423 LINE",
"69 430 OFFCURVE",
"75 435 OFFCURVE",
"82 435 CURVE",
"191 435 LINE",
"199 435 OFFCURVE",
"205 429 OFFCURVE",
"205 421 CURVE",
"186 230 LINE",
"185 223 OFFCURVE",
"179 218 OFFCURVE",
"172 218 CURVE",
"63 218 LINE"
);
},
{
closed = 1;
nodes = (
"931 218 LINE",
"118 218 LINE",
"133 353 LINE",
"931 353 LINE"
);
},
{
closed = 1;
nodes = (
"698 435 LINE",
"206 434 LINE",
"206 569 LINE",
"698 570 LINE"
);
},
{
closed = 1;
nodes = (
"698 0 LINE",
"564 0 LINE",
"564 291 LINE",
"698 291 LINE"
);
}
);
width = 981;
}
);
unicode = 0034;
},
{
glyphname = five;
lastChange = "2020-10-24 22:14:57 +0000";
layers = (
{
layerId = "79BCC730-0F44-4A42-A012-F492207EDC30";
paths = (
{
closed = 1;
nodes = (
"68 0 OFFCURVE",
"62 6 OFFCURVE",
"62 14 CURVE",
"72 125 LINE",
"72 132 OFFCURVE",
"78 136 OFFCURVE",
"85 136 CURVE",
"796 136 LINE",
"795 0 LINE",
"76 0 LINE"
);
},
{
closed = 1;
nodes = (
"949 434 LINE",
"207 434 LINE",
"207 570 LINE",
"950 570 LINE"
);
},
{
closed = 1;
nodes = (
"796 136 LINE",
"950 136 LINE",
"950 353 LINE",
"796 353 LINE"
);
},
{
closed = 1;
nodes = (
"207 434 LINE",
"341 434 LINE",
"341 333 LINE",
"321 354 LINE",
"341 354 LINE",
"796 353 LINE",
"796 218 LINE",
"207 218 LINE"
);
}
);
width = 1000;
}
);
unicode = 0035;
},
{
glyphname = six;
lastChange = "2020-10-24 21:50:58 +0000";
layers = (
{
layerId = "79BCC730-0F44-4A42-A012-F492207EDC30";
paths = (
{
closed = 1;
nodes = (
"56 0 OFFCURVE",
"50 6 OFFCURVE",
"50 14 CURVE",
"89 424 LINE",
"89 431 OFFCURVE",
"95 435 OFFCURVE",
"102 435 CURVE",
"212 435 LINE",
"219 435 OFFCURVE",
"226 428 OFFCURVE",
"225 421 CURVE",
"186 12 LINE",
"186 5 OFFCURVE",
"180 0 OFFCURVE",
"173 0 CURVE",
"64 0 LINE"
);
},
{
closed = 1;
nodes = (
"949 434 LINE",
"227 434 LINE",
"227 570 LINE",
"950 570 LINE"
);
},
{
closed = 1;
nodes = (
"950 136 LINE",
"816 136 LINE",
"816 238 LINE",
"836 217 LINE",
"816 217 LINE",
"139 217 LINE",
"152 353 LINE",
"950 353 LINE"
);
},
{
closed = 1;
nodes = (
"815 0 LINE",
"93 0 LINE",
"93 136 LINE",
"816 136 LINE"
);
}
);
width = 1000;
}
);
unicode = 0036;
},
{
glyphname = seven;
lastChange = "2020-10-24 22:15:52 +0000";
layers = (
{
layerId = "79BCC730-0F44-4A42-A012-F492207EDC30";
paths = (
{
closed = 1;
nodes = (
"720 434 LINE",
"50 434 LINE",
"50 570 LINE",
"720 570 LINE"
);
},
{
closed = 1;
nodes = (
"854 434 LINE",
"854 218 LINE",
"720 218 LINE",
"720 434 LINE"
);
},
{
closed = 1;
nodes = (
"720 135 LINE",
"586 135 LINE",
"586 218 LINE",
"720 218 LINE"
);
},
{
closed = 1;
nodes = (
"586 1 LINE",
"452 1 LINE",
"452 136 LINE",
"586 136 LINE"
);
}
);
width = 904;
}
);
unicode = 0037;
},
{
glyphname = eight;
lastChange = "2020-10-24 22:18:36 +0000";
layers = (
{
layerId = "79BCC730-0F44-4A42-A012-F492207EDC30";
paths = (
{
closed = 1;
nodes = (
"48 136 OFFCURVE",
"42 142 OFFCURVE",
"42 150 CURVE",
"68 424 LINE",
"68 431 OFFCURVE",
"74 435 OFFCURVE",
"81 435 CURVE",
"191 435 LINE",
"198 435 OFFCURVE",
"205 428 OFFCURVE",
"204 421 CURVE",
"178 148 LINE",
"178 141 OFFCURVE",
"172 136 OFFCURVE",
"165 136 CURVE",
"56 136 LINE"
);
},
{
closed = 1;
nodes = (
"929 136 LINE",
"795 136 LINE",
"795 238 LINE",
"815 217 LINE",
"118 217 LINE",
"131 353 LINE",
"815 353 LINE",
"795 334 LINE",
"795 434 LINE",
"929 434 LINE"
);
},
{
closed = 1;
nodes = (
"794 0 LINE",
"177 0 LINE",
"177 136 LINE",
"795 136 LINE"
);
},
{
closed = 1;
nodes = (
"795 434 LINE",
"204 434 LINE",
"204 570 LINE",
"795 570 LINE"
);
}
);
width = 979;
}
);
unicode = 0038;
},
{
glyphname = nine;
lastChange = "2020-10-24 22:15:27 +0000";
layers = (
{
layerId = "79BCC730-0F44-4A42-A012-F492207EDC30";
paths = (
{
closed = 1;
nodes = (
"64 217 OFFCURVE",
"58 223 OFFCURVE",
"58 231 CURVE",
"76 424 LINE",
"76 431 OFFCURVE",
"82 435 OFFCURVE",
"89 435 CURVE",
"199 435 LINE",
"206 435 OFFCURVE",
"213 428 OFFCURVE",
"212 421 CURVE",
"194 229 LINE",
"194 222 OFFCURVE",
"188 217 OFFCURVE",
"181 217 CURVE",
"72 217 LINE"
);
},
{
closed = 1;
nodes = (
"937 136 LINE",
"803 136 LINE",
"803 238 LINE",
"823 217 LINE",
"126 217 LINE",
"139 353 LINE",
"823 353 LINE",
"803 334 LINE",
"803 434 LINE",
"937 434 LINE"
);
},
{
closed = 1;
nodes = (
"802 0 LINE",
"185 0 LINE",
"185 136 LINE",
"803 136 LINE"
);
},
{
closed = 1;
nodes = (
"803 434 LINE",
"212 434 LINE",
"212 570 LINE",
"803 570 LINE"
);
}
);
width = 987;
}
);
unicode = 0039;
},
{
glyphname = period;
lastChange = "2020-10-25 13:23:14 +0000";
layers = (
{
layerId = "79BCC730-0F44-4A42-A012-F492207EDC30";
paths = (
{
closed = 1;
nodes = (
"55 0 OFFCURVE",
"49 7 OFFCURVE",
"50 15 CURVE",
"60 124 LINE",
"61 130 OFFCURVE",
"67 136 OFFCURVE",
"74 136 CURVE",
"217 136 LINE",
"217 0 LINE",
"63 0 LINE"
);
}
);
width = 267;
}
);
unicode = 002E;
},
{
glyphname = comma;
lastChange = "2020-10-25 13:45:26 +0000";
layers = (
{
layerId = "79BCC730-0F44-4A42-A012-F492207EDC30";
paths = (
{
closed = 1;
nodes = (
"55 -136 OFFCURVE",
"49 -129 OFFCURVE",
"50 -121 CURVE",
"60 -12 LINE",
"61 -6 OFFCURVE",
"67 0 OFFCURVE",
"74 0 CURVE",
"217 0 LINE",
"217 -136 LINE",
"63 -136 LINE"
);
},
{
closed = 1;
nodes = (
"485 0 LINE",
"217 0 LINE",
"217 136 LINE",
"485 136 LINE"
);
}
);
width = 535;
}
);
unicode = 002C;
},
{
glyphname = colon;
lastChange = "2020-10-25 13:21:47 +0000";
layers = (
{
layerId = "79BCC730-0F44-4A42-A012-F492207EDC30";
paths = (
{
closed = 1;
nodes = (
"55 0 OFFCURVE",
"49 7 OFFCURVE",
"50 15 CURVE",
"60 124 LINE",
"61 130 OFFCURVE",
"67 136 OFFCURVE",
"74 136 CURVE",
"236 136 LINE",
"236 0 LINE",
"63 0 LINE"
);
},
{
closed = 1;
nodes = (
"236 434 LINE",
"102 434 LINE",
"102 569 LINE",
"236 569 LINE"
);
}
);
width = 286;
}
);
unicode = 003A;
},
{
glyphname = semicolon;
lastChange = "2020-10-25 13:28:03 +0000";
layers = (
{
layerId = "79BCC730-0F44-4A42-A012-F492207EDC30";
paths = (
{
closed = 1;
nodes = (
"485 434 LINE",
"351 434 LINE",
"351 569 LINE",
"485 569 LINE"
);
},
{
closed = 1;
nodes = (
"55 -136 OFFCURVE",
"49 -129 OFFCURVE",
"50 -121 CURVE",
"60 -12 LINE",
"61 -6 OFFCURVE",
"67 0 OFFCURVE",
"74 0 CURVE",
"217 0 LINE",
"217 -136 LINE",
"63 -136 LINE"
);
},
{
closed = 1;
nodes = (
"485 0 LINE",
"217 0 LINE",
"217 136 LINE",
"485 136 LINE"
);
}
);
width = 535;
}
);
unicode = 003B;
},
{
glyphname = exclam;
lastChange = "2020-10-25 19:53:25 +0000";
layers = (
{
layerId = "79BCC730-0F44-4A42-A012-F492207EDC30";
paths = (
{
closed = 1;
nodes = (
"75 217 OFFCURVE",
"69 224 OFFCURVE",
"70 232 CURVE",
"102 558 LINE",
"102 565 OFFCURVE",
"108 570 OFFCURVE",
"115 570 CURVE",
"224 570 LINE",
"232 570 OFFCURVE",
"238 564 OFFCURVE",
"238 556 CURVE",
"206 229 LINE",
"205 222 OFFCURVE",
"199 217 OFFCURVE",
"192 217 CURVE",
"83 217 LINE"
);
},
{
closed = 1;
nodes = (
"55 0 OFFCURVE",
"49 7 OFFCURVE",
"50 15 CURVE",
"59 125 LINE",
"59 132 OFFCURVE",
"65 137 OFFCURVE",
"72 137 CURVE",
"181 137 LINE",
"189 137 OFFCURVE",
"195 131 OFFCURVE",
"195 123 CURVE",
"186 12 LINE",
"185 5 OFFCURVE",
"179 0 OFFCURVE",
"172 0 CURVE",
"63 0 LINE"
);
}
);
width = 288;
}
);
unicode = 0021;
},
{
glyphname = slash;
lastChange = "2020-10-25 13:45:54 +0000";
layers = (
{
layerId = "79BCC730-0F44-4A42-A012-F492207EDC30";
paths = (
{
closed = 1;
nodes = (
"55 0 OFFCURVE",
"49 7 OFFCURVE",
"50 15 CURVE",
"102 558 LINE",
"102 565 OFFCURVE",
"108 570 OFFCURVE",
"115 570 CURVE",
"224 570 LINE",
"232 570 OFFCURVE",
"238 564 OFFCURVE",
"238 556 CURVE",
"186 12 LINE",
"185 5 OFFCURVE",
"179 0 OFFCURVE",
"172 0 CURVE",
"63 0 LINE"
);
}
);
width = 288;
}
);
unicode = 002F;
},
{
glyphname = backslash;
lastChange = "2020-10-25 13:47:28 +0000";
layers = (
{
layerId = "79BCC730-0F44-4A42-A012-F492207EDC30";
paths = (
{
closed = 1;
nodes = (
"116 0 LINE",
"109 0 OFFCURVE",
"103 5 OFFCURVE",
"102 12 CURVE",
"50 556 LINE",
"50 564 OFFCURVE",
"56 570 OFFCURVE",
"64 570 CURVE",
"173 570 LINE",
"180 570 OFFCURVE",
"186 565 OFFCURVE",
"186 558 CURVE",
"238 15 LINE",
"239 7 OFFCURVE",
"233 0 OFFCURVE",
"225 0 CURVE"
);
}
);
width = 288;
}
);
unicode = 005C;
},
{
glyphname = parenleft;
lastChange = "2020-10-24 11:53:00 +0000";
layers = (
{
layerId = "79BCC730-0F44-4A42-A012-F492207EDC30";
paths = (
{
closed = 1;
nodes = (
"317 0 LINE",
"183 0 LINE",
"183 136 LINE",
"317 136 LINE"
);
},
{
closed = 1;
nodes = (
"56 137 OFFCURVE",
"50 143 OFFCURVE",
"50 151 CURVE",
"89 559 LINE",
"89 566 OFFCURVE",
"95 570 OFFCURVE",
"102 570 CURVE",
"212 570 LINE",
"219 570 OFFCURVE",
"226 563 OFFCURVE",
"225 556 CURVE",
"186 149 LINE",
"186 142 OFFCURVE",
"180 137 OFFCURVE",
"173 137 CURVE",
"64 137 LINE"
);
},
{
closed = 1;
nodes = (
"348 434 LINE",
"142 434 LINE",
"155 570 LINE",
"348 570 LINE"
);
}
);
width = 398;
}
);
unicode = 0028;
},
{
glyphname = parenright;
lastChange = "2020-10-24 11:52:25 +0000";
layers = (
{
layerId = "79BCC730-0F44-4A42-A012-F492207EDC30";
paths = (
{
closed = 1;
nodes = (
"184 0 LINE",
"50 0 LINE",
"50 136 LINE",
"184 136 LINE"
);
},
{
closed = 1;
nodes = (
"184 434 LINE",
"50 434 LINE",
"50 570 LINE",
"184 570 LINE"
);
},
{
closed = 1;
nodes = (
"318 136 LINE",
"184 136 LINE",
"184 570 LINE",
"318 570 LINE"
);
}
);
width = 368;
}
);
unicode = 0029;
},
{
glyphname = braceleft;
lastChange = "2020-10-24 12:01:21 +0000";
layers = (
{
layerId = "79BCC730-0F44-4A42-A012-F492207EDC30";
paths = (
{
closed = 1;
nodes = (
"262 219 LINE",
"50 219 LINE",
"50 354 LINE",
"262 354 LINE"
);
},
{
closed = 1;
nodes = (
"158 0 OFFCURVE",
"152 6 OFFCURVE",
"152 14 CURVE",
"204 559 LINE",
"204 566 OFFCURVE",
"210 570 OFFCURVE",
"217 570 CURVE",
"463 570 LINE",
"463 434 LINE",
"298 434 LINE",
"331 452 LINE",
"329 434 LINE",
"300 136 LINE",
"298 111 LINE",
"276 136 LINE",
"432 136 LINE",
"432 0 LINE",
"166 0 LINE"
);
}
);
width = 513;
}
);
unicode = 007B;
},
{
glyphname = braceright;
lastChange = "2020-10-24 12:02:04 +0000";
layers = (
{
layerId = "79BCC730-0F44-4A42-A012-F492207EDC30";
paths = (
{
closed = 1;
nodes = (
"452 219 LINE",
"245 219 LINE",
"245 354 LINE",
"452 354 LINE"
);
},
{
closed = 1;
nodes = (
"318 0 LINE",
"50 0 LINE",
"50 136 LINE",
"202 136 LINE",
"184 118 LINE",
"184 443 LINE",
"193 434 LINE",
"50 434 LINE",
"50 570 LINE",
"318 570 LINE"
);
}
);
width = 502;
}
);
unicode = 007D;
},
{
glyphname = bracketleft;
lastChange = "2020-10-24 12:00:47 +0000";
layers = (
{
layerId = "79BCC730-0F44-4A42-A012-F492207EDC30";
paths = (
{
closed = 1;
nodes = (
"56 0 OFFCURVE",
"50 6 OFFCURVE",
"50 14 CURVE",
"102 559 LINE",
"102 566 OFFCURVE",
"108 570 OFFCURVE",
"115 570 CURVE",
"361 570 LINE",
"361 434 LINE",
"196 434 LINE",
"229 452 LINE",
"227 434 LINE",
"198 136 LINE",
"196 111 LINE",
"174 136 LINE",
"330 136 LINE",
"330 0 LINE",
"64 0 LINE"
);
}
);
width = 411;
}
);
unicode = 005B;
},
{
glyphname = bracketright;
lastChange = "2020-10-24 11:58:19 +0000";
layers = (
{
layerId = "79BCC730-0F44-4A42-A012-F492207EDC30";
paths = (
{
closed = 1;
nodes = (
"318 0 LINE",
"184 0 LINE",
"50 0 LINE",
"50 136 LINE",
"202 136 LINE",
"184 118 LINE",
"184 136 LINE",
"184 434 LINE",
"184 443 LINE",
"193 434 LINE",
"50 434 LINE",
"50 570 LINE",
"318 570 LINE"
);
}
);
width = 368;
}
);
unicode = 005D;
},
{
glyphname = hyphen;
lastChange = "2020-10-24 11:12:28 +0000";
layers = (
{
layerId = "79BCC730-0F44-4A42-A012-F492207EDC30";
paths = (
{
closed = 1;
nodes = (
"55 218 OFFCURVE",
"49 225 OFFCURVE",
"50 233 CURVE",
"60 342 LINE",
"61 348 OFFCURVE",
"67 354 OFFCURVE",
"74 354 CURVE",
"513 354 LINE",
"513 218 LINE",
"63 218 LINE"
);
}
);
width = 563;
}
);
unicode = 002D;
},
{
glyphname = endash;
lastChange = "2020-10-25 13:20:04 +0000";
layers = (
{
layerId = "79BCC730-0F44-4A42-A012-F492207EDC30";
paths = (
{
closed = 1;
nodes = (
"55 218 OFFCURVE",
"49 225 OFFCURVE",
"50 233 CURVE",
"60 342 LINE",
"61 348 OFFCURVE",
"67 354 OFFCURVE",
"74 354 CURVE",
"964 354 LINE",
"964 218 LINE",
"63 218 LINE"
);
}
);
width = 1014;
}
);
unicode = 2013;
},
{
glyphname = emdash;
lastChange = "2020-10-25 13:20:38 +0000";
layers = (
{
layerId = "79BCC730-0F44-4A42-A012-F492207EDC30";
paths = (
{
closed = 1;
nodes = (
"55 218 OFFCURVE",
"49 225 OFFCURVE",
"50 233 CURVE",
"60 342 LINE",
"61 348 OFFCURVE",
"67 354 OFFCURVE",
"74 354 CURVE",
"1433 354 LINE",
"1433 218 LINE",
"63 218 LINE"
);
}
);
width = 1483;
}
);
unicode = 2014;
},
{
glyphname = quotedbl;
lastChange = "2020-10-25 13:50:33 +0000";
layers = (
{
layerId = "79BCC730-0F44-4A42-A012-F492207EDC30";
paths = (
{
closed = 1;
nodes = (
"184 354 LINE",
"50 354 LINE",
"50 569 LINE",
"184 569 LINE"
);
},
{
closed = 1;
nodes = (
"452 354 LINE",
"318 354 LINE",
"318 569 LINE",
"452 569 LINE"
);
},
{
closed = 1;
nodes = (
"184 354 LINE",
"50 354 LINE",
"50 569 LINE",
"184 569 LINE"
);
}
);
width = 502;
}
);
unicode = 0022;
},
{
glyphname = quotesingle;
lastChange = "2020-10-25 13:50:50 +0000";
layers = (
{
layerId = "79BCC730-0F44-4A42-A012-F492207EDC30";
paths = (
{
closed = 1;
nodes = (
"184 354 LINE",
"50 354 LINE",
"50 569 LINE",
"184 569 LINE"
);
}
);
width = 234;
}
);
unicode = 0027;
},
{
glyphname = at;
lastChange = "2020-10-25 18:47:44 +0000";
layers = (
{
layerId = "79BCC730-0F44-4A42-A012-F492207EDC30";
paths = (
{
closed = 1;
nodes = (
"56 -136 OFFCURVE",
"50 -130 OFFCURVE",
"50 -122 CURVE",
"102 424 LINE",
"102 431 OFFCURVE",
"108 435 OFFCURVE",
"115 435 CURVE",
"225 435 LINE",
"232 435 OFFCURVE",
"239 428 OFFCURVE",
"238 421 CURVE",
"186 -124 LINE",
"186 -131 OFFCURVE",
"180 -136 OFFCURVE",
"173 -136 CURVE",
"64 -136 LINE"
);
},
{
closed = 1;
nodes = (
"828 435 LINE",
"240 435 LINE",
"240 570 LINE",
"828 570 LINE"
);
},
{
closed = 1;
nodes = (
"963 136 LINE",
"829 136 LINE",
"829 238 LINE",
"849 217 LINE",
"829 217 LINE",
"531 217 LINE",
"531 353 LINE",
"963 353 LINE"
);
},
{
closed = 1;
nodes = (
"396 -136 LINE",
"106 -136 LINE",
"106 0 LINE",
"396 0 LINE"
);
},
{
closed = 1;
nodes = (
"531 217 LINE",
"531 82 LINE",
"396 82 LINE",
"396 217 LINE"
);
},
{
closed = 1;
nodes = (
"962 0 LINE",
"396 0 LINE",
"396 136 LINE",
"963 136 LINE"
);
},
{
closed = 1;
nodes = (
"963 435 LINE",
"963 352 LINE",
"828 352 LINE",
"828 435 LINE"
);
},
{
closed = 1;
nodes = (
"397 0 LINE",
"397 -135 LINE",
"262 -135 LINE",
"262 0 LINE"
);
},
{
closed = 1;
nodes = (
"1097 135 LINE",
"1097 0 LINE",
"962 0 LINE",
"962 135 LINE"
);
}
);
width = 1147;
}
);
unicode = 0040;
},
{
glyphname = ampersand;
lastChange = "2020-10-25 13:18:36 +0000";
layers = (
{
layerId = "79BCC730-0F44-4A42-A012-F492207EDC30";
paths = (
{
closed = 1;
nodes = (
"56 136 OFFCURVE",
"50 142 OFFCURVE",
"50 150 CURVE",
"68 342 LINE",
"68 349 OFFCURVE",
"74 353 OFFCURVE",
"81 353 CURVE",
"191 353 LINE",
"198 353 OFFCURVE",
"205 346 OFFCURVE",
"204 339 CURVE",
"186 148 LINE",
"186 141 OFFCURVE",
"180 136 OFFCURVE",
"173 136 CURVE",
"64 136 LINE"
);
},
{
closed = 1;
nodes = (
"880 0 LINE",
"185 0 LINE",
"185 136 LINE",
"881 136 LINE"
);
},
{
closed = 1;
nodes = (
"607 434 LINE",
"226 434 LINE",
"226 569 LINE",
"607 570 LINE"
);
},
{
closed = 1;
nodes = (
"747 219 LINE",
"129 218 LINE",
"144 353 LINE",
"747 353 LINE"
);
},
{
closed = 1;
nodes = (
"1149 353 LINE",
"1149 219 LINE",
"881 219 LINE",
"881 353 LINE"
);
},
{
closed = 1;
nodes = (
"881 136 LINE",
"747 136 LINE",
"747 219 LINE",
"881 219 LINE"
);
},
{
closed = 1;
nodes = (
"360 570 LINE",
"360 287 LINE",
"226 287 LINE",
"226 570 LINE"
);
}
);
width = 1199;
}
);
unicode = 0026;
},
{
glyphname = copyright;
lastChange = "2020-10-25 13:53:35 +0000";
layers = (
{
layerId = "79BCC730-0F44-4A42-A012-F492207EDC30";
paths = (
{
closed = 1;
nodes = (
"804 434 LINE",
"213 434 LINE",
"213 570 LINE",
"804 570 LINE"
);
},
{
closed = 1;
nodes = (
"804 0 LINE",
"183 0 LINE",
"183 136 LINE",
"804 136 LINE"
);
},
{
closed = 1;
nodes = (
"56 137 OFFCURVE",
"50 143 OFFCURVE",
"50 151 CURVE",
"76 424 LINE",
"76 431 OFFCURVE",
"82 435 OFFCURVE",
"89 435 CURVE",
"199 435 LINE",
"206 435 OFFCURVE",
"213 428 OFFCURVE",
"212 421 CURVE",
"186 149 LINE",
"186 142 OFFCURVE",
"180 137 OFFCURVE",
"173 137 CURVE",
"64 137 LINE"
);
},
{
closed = 1;
nodes = (
"938 434 LINE",
"938 135 LINE",
"804 135 LINE",
"804 434 LINE"
);
},
{
closed = 1;
nodes = (
"335 217 OFFCURVE",
"329 224 OFFCURVE",
"330 232 CURVE",
"340 341 LINE",
"341 347 OFFCURVE",
"347 353 OFFCURVE",
"354 353 CURVE",
"872 353 LINE",
"872 217 LINE",
"343 217 LINE"
);
}
);
width = 988;
}
);
unicode = 00A9;
},
{
glyphname = registered;
lastChange = "2020-10-25 19:00:57 +0000";
layers = (
{
layerId = "79BCC730-0F44-4A42-A012-F492207EDC30";
paths = (
{
closed = 1;
nodes = (
"884 434 LINE",
"213 434 LINE",
"213 570 LINE",
"884 570 LINE"
);
},
{
closed = 1;
nodes = (
"884 0 LINE",
"183 0 LINE",
"183 136 LINE",
"884 136 LINE"
);
},
{
closed = 1;
nodes = (
"56 137 OFFCURVE",
"50 143 OFFCURVE",
"50 151 CURVE",
"76 424 LINE",
"76 431 OFFCURVE",
"82 435 OFFCURVE",
"89 435 CURVE",
"199 435 LINE",
"206 435 OFFCURVE",
"213 428 OFFCURVE",
"212 421 CURVE",
"186 149 LINE",
"186 142 OFFCURVE",
"180 137 OFFCURVE",
"173 137 CURVE",
"64 137 LINE"
);
},
{
closed = 1;
nodes = (
"1018 434 LINE",
"1018 135 LINE",
"884 135 LINE",
"884 434 LINE"
);
},
{
closed = 1;
nodes = (
"415 217 OFFCURVE",
"409 224 OFFCURVE",
"410 232 CURVE",
"420 341 LINE",
"421 347 OFFCURVE",
"427 353 OFFCURVE",
"434 353 CURVE",
"748 353 LINE",
"748 217 LINE",
"423 217 LINE"
);
},
{
closed = 1;
nodes = (
"837 0 LINE",
"682 0 LINE",
"463 217 LINE",
"463 353 LINE",
"520 353 LINE",
"738 135 LINE",
"762 111 LINE",
"702 135 LINE",
"837 135 LINE"
);
},
{
closed = 1;
nodes = (
"320 55 OFFCURVE",
"314 61 OFFCURVE",
"314 69 CURVE",
"340 342 LINE",
"340 349 OFFCURVE",
"346 353 OFFCURVE",
"353 353 CURVE",
"463 353 LINE",
"470 353 OFFCURVE",
"477 346 OFFCURVE",
"476 339 CURVE",
"450 67 LINE",
"450 60 OFFCURVE",
"444 55 OFFCURVE",
"437 55 CURVE",
"328 55 LINE"
);
}
);
width = 1068;
}
);
unicode = 00AE;
},
{
glyphname = trademark;
lastChange = "2020-10-25 19:07:58 +0000";
layers = (
{
layerId = "79BCC730-0F44-4A42-A012-F492207EDC30";
paths = (
{
closed = 1;
nodes = (
"585 434 LINE",
"100 434 LINE",
"100 570 LINE",
"585 570 LINE"
);
},
{
closed = 1;
nodes = (
"1159 299 LINE",
"1052 299 LINE",
"914 435 LINE",
"901 448 LINE",
"933 435 LINE",
"854 435 LINE",
"854 570 LINE",
"973 570 LINE",
"1110 435 LINE",
"1124 421 LINE",
"1091 435 LINE",
"1160 435 LINE"
);
},
{
closed = 1;
nodes = (
"854 435 LINE",
"854 300 LINE",
"719 300 LINE",
"719 435 LINE"
);
},
{
closed = 1;
nodes = (
"410 570 LINE",
"410 300 LINE",
"275 300 LINE",
"275 570 LINE"
);
},
{
closed = 1;
nodes = (
"1465 299 LINE",
"1358 299 LINE",
"1220 435 LINE",
"1207 448 LINE",
"1239 435 LINE",
"1160 435 LINE",
"1160 570 LINE",
"1279 570 LINE",
"1416 435 LINE",
"1430 421 LINE",
"1397 435 LINE",
"1466 435 LINE"
);
}
